<svg width="85" height="123" viewBox="0 0 85 123" fill="none" xmlns="http://www.w3.org/2000/svg">
<path fill-rule="evenodd" clip-rule="evenodd" d="M84 56.75C82.65 72 81.17 88.81 71.31 100.23C63.2 109.62 55.85 121.14 42.14 121.14C28.42 121.14 21.08 109.62 12.96 100.23C3.08998 88.81 1.69998 72 0.349976 56.75C0.339976 -19.05 83.99 -18.75 84 56.75ZM31.06 65.41C26.07 56.96 14.84 53.61 8.21998 43.32C4.93998 51.05 6.62998 67.89 16.51 75.55C22.27 76.44 30.09 72.34 31.06 65.41ZM53.33 65.41C58.32 56.96 69.56 53.61 76.17 43.32C79.45 51.05 77.76 67.89 67.88 75.55C62.12 76.44 54.3 72.34 53.33 65.41Z" fill="#E31E24"/>
<path fill-rule="evenodd" clip-rule="evenodd" d="M43.22 65.88C50.61 51.67 67.61 49.63 79.08 28.12C86.07 46.07 84.58 70.48 69.41 83C58.74 81.12 48.05 74.93 43.22 65.88ZM40.96 65.94C33.57 51.73 16.78 49.64 5.31001 28.12C-1.67999 46.07 -0.18999 70.48 14.98 83C25.66 81.12 36.13 74.99 40.96 65.94ZM31.06 65.41C26.07 56.96 14.84 53.61 8.22001 43.32C4.94001 51.05 6.63001 67.89 16.51 75.55C22.27 76.44 30.09 72.34 31.06 65.41ZM53.33 65.41C58.32 56.96 69.56 53.61 76.17 43.32C79.45 51.05 77.76 67.89 67.88 75.55C62.12 76.44 54.3 72.34 53.33 65.41Z" fill="black" stroke="black" stroke-width="0.216" stroke-miterlimit="2.6131"/>
<path d="M17.63 103.07C24.3 111.14 31.13 119.39 42.13 119.39C53.13 119.39 59.96 111.14 66.63 103.07C67.81 101.65 68.98 100.23 69.91 99.15L69.96 99.09C78.21 89.54 79.26 75.75 80.27 62.47C80.42 60.5 80.57 58.53 80.72 56.81C80.73 56.75 80.73 56.68 80.74 56.62C80.73 40.77 78.52 28.12 72.57 19.4C66.71 10.81 57.08 3.9 42.13 3.49C27.18 3.9 17.55 10.81 11.7 19.39C5.75 28.11 3.54 40.76 3.53 56.61C3.69 58.41 3.84 60.43 4 62.46C5 75.75 6.05 89.54 14.3 99.09C15.24 100.17 16.43 101.62 17.63 103.07ZM42.13 122.88C29.46 122.88 22.1 113.98 14.9 105.28C13.9 104.07 12.9 102.86 11.61 101.37C2.61 90.96 1.52 76.57 0.46 62.72C0.32 60.82 0.18 58.95 0 56.82C0 40.17 2.37 26.83 8.78 17.44C15.3 7.89 25.85 0.44 42.09 0H42.17C58.42 0.44 68.96 7.89 75.48 17.44C81.89 26.83 84.26 40.17 84.26 56.75V56.89C84.25 56.95 84.25 57.02 84.24 57.08C84.06 59.08 83.93 60.89 83.79 62.7C82.74 76.56 81.64 90.94 72.64 101.35C71.35 102.84 70.35 104.05 69.35 105.26C62.16 113.98 54.8 122.88 42.13 122.88Z" fill="black"/>
<path d="M18.3 11.15C13.83 25.96 25.95 43.21 40.13 62.18C32.94 41.27 26.91 22.34 30.22 5.96C28.01 6.49 25.96 7.17 24.06 7.97C21.96 8.87 20.04 9.93 18.3 11.15ZM41.39 66.08C25.97 45.5 11.99 26.85 17.1 10.55C17.14 10.42 17.23 10.3 17.35 10.21C19.22 8.88 21.29 7.72 23.55 6.76C25.81 5.8 28.27 5.02 30.95 4.44C31.04 4.42 31.14 4.42 31.23 4.44C31.59 4.52 31.81 4.87 31.73 5.23C27.9 22.04 34.54 41.9 42.13 63.93C49.72 41.92 56.35 22.08 52.54 5.27C52.51 5.17 52.51 5.06 52.53 4.95C52.61 4.59 52.96 4.36 53.32 4.44C55.99 5.02 58.46 5.8 60.72 6.76C62.97 7.72 65.03 8.87 66.9 10.19C67.03 10.27 67.13 10.4 67.17 10.55C72.27 26.85 58.29 45.51 42.87 66.08L42.67 66.35C42.63 66.4 42.58 66.45 42.53 66.49C42.24 66.71 41.82 66.65 41.6 66.36L41.39 66.08ZM44.14 62.18C58.32 43.21 70.44 25.96 65.97 11.15C64.22 9.93 62.31 8.87 60.2 7.97C58.3 7.16 56.26 6.49 54.04 5.96C57.35 22.34 51.32 41.27 44.14 62.18Z" fill="black"/>
<path d="M41.6299 52.6C41.8599 52.31 42.2699 52.26 42.5599 52.49C42.8499 52.71 42.8999 53.13 42.6699 53.42L42.6599 53.44C42.4399 53.73 42.0199 53.78 41.7299 53.55C41.4399 53.32 41.3899 52.91 41.6199 52.62L41.6299 52.6Z" fill="black"/>
<path d="M41.6299 53.42C41.3999 53.13 41.4499 52.72 41.7399 52.49C42.0299 52.26 42.4399 52.31 42.6699 52.6L42.7699 52.72C42.9999 53 42.9599 53.42 42.6699 53.65C42.3899 53.88 41.9699 53.84 41.7399 53.55L41.6299 53.42Z" fill="black"/>
<path d="M41.61 52.61C41.84 52.32 42.25 52.28 42.54 52.5C42.83 52.73 42.87 53.14 42.65 53.43C42.16 54.04 41.62 54.61 40.9 54.98C40.28 55.3 39.56 55.46 38.69 55.37C38.43 55.94 38.1 56.4 37.7 56.78C37.31 57.15 36.85 57.44 36.33 57.66C36.33 58.12 36.24 58.54 36.06 58.91C35.8 59.44 35.36 59.84 34.75 60.06C34.41 60.18 34.03 60 33.9 59.66C33.78 59.32 33.96 58.94 34.3 58.81C34.57 58.71 34.76 58.55 34.87 58.32C35 58.06 35.04 57.71 34.97 57.31C34.92 56.99 35.11 56.68 35.43 56.58C35.98 56.41 36.43 56.17 36.79 55.82C37.15 55.48 37.43 55.02 37.65 54.41C37.76 54.11 38.08 53.92 38.41 53.99C39.2 54.16 39.8 54.06 40.28 53.81C40.8 53.55 41.23 53.1 41.61 52.61Z" fill="black"/>
<path d="M41.6101 53.43C41.3901 53.14 41.4401 52.73 41.7201 52.5C42.0101 52.28 42.4201 52.33 42.6501 52.61L42.7201 52.69C43.1001 53.15 43.5101 53.57 44.0101 53.82C44.4901 54.06 45.0801 54.15 45.8401 53.98C46.1701 53.91 46.4901 54.1 46.6001 54.4C46.8201 55.01 47.1101 55.47 47.4601 55.81C47.8201 56.15 48.2601 56.39 48.8201 56.57C49.1401 56.67 49.3301 56.98 49.2801 57.3C49.2201 57.71 49.2601 58.05 49.3801 58.31C49.4901 58.53 49.6801 58.7 49.9501 58.8C50.2901 58.92 50.4701 59.3 50.3501 59.65C50.2301 59.99 49.8501 60.17 49.5001 60.05C48.8901 59.83 48.4601 59.44 48.1901 58.9C48.0101 58.53 47.9201 58.11 47.9201 57.65C47.3901 57.43 46.9401 57.15 46.5501 56.77C46.1501 56.39 45.8301 55.93 45.5601 55.36C44.7201 55.45 44.0201 55.3 43.4201 55C42.7101 54.65 42.1701 54.11 41.6901 53.52L41.6101 53.43Z" fill="black"/>
<path d="M41.5199 43.43C41.6599 43.09 42.0499 42.93 42.3799 43.07C42.7199 43.21 42.8799 43.6 42.7399 43.93C42.2499 45.12 41.3799 46.44 39.9199 47.21C38.9699 47.71 37.7799 47.96 36.3099 47.76C35.9799 48.92 35.3699 49.92 34.5299 50.61C33.7399 51.27 32.7499 51.64 31.6499 51.62C31.4299 52.42 30.8899 53.31 30.2099 54.04C29.3499 54.98 28.2399 55.7 27.2999 55.72C27.2599 55.72 27.2199 55.72 27.1899 55.72C26.8199 55.71 26.5399 55.4 26.5499 55.04C26.5599 54.67 26.8699 54.39 27.2299 54.4H27.2699C27.8199 54.39 28.5799 53.85 29.2299 53.14C29.8899 52.42 30.3999 51.57 30.4199 50.96V50.93C30.4199 50.88 30.4199 50.83 30.4299 50.78C30.4899 50.42 30.8299 50.18 31.1899 50.24C32.1499 50.4 33.0099 50.13 33.6799 49.58C34.4199 48.97 34.9399 48.01 35.1399 46.88L35.1499 46.85C35.2299 46.49 35.5799 46.26 35.9399 46.34C37.3699 46.65 38.4699 46.47 39.2999 46.03C40.4399 45.45 41.1299 44.38 41.5199 43.43Z" fill="black"/>
<path d="M41.52 43.93C41.38 43.59 41.54 43.21 41.88 43.07C42.22 42.93 42.6 43.09 42.74 43.43C43.13 44.39 43.82 45.45 44.94 46.04C45.78 46.48 46.87 46.66 48.3 46.35C48.66 46.27 49.01 46.5 49.09 46.86V46.89C49.29 48.02 49.81 48.98 50.55 49.59C51.22 50.14 52.07 50.41 53.04 50.25C53.4 50.19 53.74 50.43 53.8 50.79C53.81 50.84 53.81 50.89 53.81 50.94V50.97C53.83 51.58 54.34 52.43 55 53.15C55.65 53.85 56.41 54.4 56.96 54.41H57C57.37 54.4 57.67 54.68 57.68 55.05C57.69 55.42 57.41 55.72 57.04 55.73C57.01 55.73 56.97 55.73 56.93 55.73C55.99 55.71 54.88 54.99 54.02 54.05C53.35 53.32 52.8 52.43 52.58 51.63C51.48 51.66 50.5 51.28 49.7 50.62C48.87 49.93 48.25 48.94 47.92 47.77C46.45 47.97 45.27 47.72 44.31 47.22C42.88 46.44 42.01 45.12 41.52 43.93Z" fill="black"/>
<path d="M41.52 32.19C41.66 31.85 42.05 31.69 42.38 31.83C42.72 31.97 42.88 32.36 42.74 32.69C42.25 33.87 40.44 35.59 38.25 36.67C36.75 37.41 35.05 37.87 33.44 37.7C32.96 38.91 31.75 40.11 30.34 41.03C28.87 41.99 27.15 42.66 25.8 42.69C25.51 43.58 24.71 44.69 23.79 45.62C22.64 46.79 21.23 47.75 20.29 47.77H20.2C19.83 47.76 19.55 47.45 19.56 47.09C19.57 46.72 19.88 46.44 20.24 46.45H20.26C20.84 46.44 21.89 45.66 22.84 44.7C23.79 43.74 24.57 42.65 24.59 42.03C24.59 41.98 24.59 41.94 24.6 41.89C24.66 41.53 25 41.29 25.36 41.35C26.43 41.53 28.13 40.9 29.6 39.93C30.98 39.03 32.12 37.86 32.3 36.85L32.31 36.82C32.39 36.46 32.74 36.23 33.1 36.31C34.56 36.62 36.2 36.2 37.65 35.49C39.59 34.54 41.14 33.13 41.52 32.19Z" fill="black"/>
<path d="M41.52 32.69C41.38 32.35 41.54 31.97 41.88 31.83C42.22 31.69 42.6 31.85 42.74 32.19C43.12 33.13 44.67 34.54 46.59 35.49C48.04 36.21 49.69 36.63 51.14 36.31C51.5 36.23 51.85 36.46 51.93 36.82V36.85C52.11 37.87 53.25 39.03 54.63 39.93C56.1 40.89 57.8 41.53 58.87 41.35C59.23 41.29 59.57 41.53 59.63 41.89C59.64 41.94 59.64 41.98 59.64 42.03C59.66 42.64 60.44 43.73 61.39 44.7C62.33 45.66 63.39 46.44 63.97 46.45H63.99C64.36 46.44 64.66 46.72 64.67 47.09C64.68 47.46 64.4 47.76 64.03 47.77H63.94C63 47.75 61.59 46.79 60.44 45.62C59.52 44.68 58.73 43.58 58.43 42.69C57.08 42.66 55.36 41.99 53.89 41.03C52.48 40.11 51.27 38.9 50.79 37.7C49.18 37.87 47.48 37.41 45.98 36.67C43.82 35.59 42.01 33.88 41.52 32.69Z" fill="black"/>
<path d="M41.4801 19.44C41.5301 19.08 41.8601 18.82 42.2201 18.87C42.5801 18.92 42.8401 19.25 42.7901 19.61C42.6301 20.81 40.4501 22.49 37.7301 23.72C35.5701 24.69 33.0501 25.42 30.9501 25.42C30.2601 26.64 28.4201 28.17 26.4101 29.47L26.3601 29.5C24.1801 30.9 21.7601 32.06 20.3801 32.27C19.9301 33.38 18.6201 35.07 17.2301 36.55C15.5401 38.35 13.6301 39.88 12.8601 39.79H12.8501C12.4901 39.75 12.2301 39.42 12.2701 39.06C12.3101 38.7 12.6401 38.44 13.0001 38.48C13.3501 38.5 14.8101 37.18 16.2601 35.65C17.7501 34.07 19.1301 32.31 19.2201 31.58C19.2601 31.22 19.5901 30.95 19.9501 30.99C20.8401 31.09 23.3401 29.89 25.6501 28.4L25.6901 28.37C27.7401 27.04 29.5701 25.53 29.9001 24.56C29.9901 24.28 30.2601 24.09 30.5601 24.11C32.5201 24.21 35.0401 23.5 37.1901 22.54C39.5201 21.46 41.3801 20.19 41.4801 19.44Z" fill="black"/>
<path d="M41.55 7.51C41.73 7.19 42.13 7.07 42.45 7.25C42.77 7.43 42.89 7.83 42.71 8.15C42.26 8.97 39.92 10.33 37.25 11.5C34.96 12.5 32.39 13.39 30.54 13.71C29.96 15.12 27.59 17.14 24.93 18.84C22.15 20.62 19 22.11 17.28 22.2C16.05 23.85 14.27 25.57 12.42 26.91C10.63 28.21 8.73996 29.15 7.15996 29.32C6.79996 29.36 6.46996 29.1 6.42996 28.73C6.38996 28.36 6.65996 28.04 7.01996 28C8.35996 27.86 10.03 27.01 11.65 25.84C13.49 24.51 15.25 22.77 16.41 21.15C16.54 20.97 16.77 20.85 17.01 20.88H17.07C18.43 20.94 21.47 19.48 24.21 17.72C26.9 16 29.26 14.06 29.34 13.1V13.09C29.35 12.77 29.59 12.5 29.92 12.46C31.65 12.24 34.33 11.32 36.71 10.28C39.16 9.21 41.24 8.07 41.55 7.51Z" fill="black"/>
<path d="M41.55 8.14C41.37 7.82 41.49 7.42 41.81 7.24C42.13 7.06 42.53 7.18 42.71 7.5C43.02 8.07 45.1 9.2 47.54 10.27C49.92 11.31 52.6 12.23 54.33 12.45C54.66 12.49 54.9 12.76 54.91 13.08V13.09C55 14.05 57.35 15.99 60.04 17.71C62.78 19.46 65.81 20.92 67.18 20.87H67.25C67.49 20.85 67.72 20.96 67.85 21.14C69.01 22.75 70.97 24.62 73.01 26.08C74.84 27.39 76.71 28.36 78.06 28.51C78.42 28.55 78.69 28.87 78.65 29.24C78.61 29.6 78.29 29.87 77.92 29.83C76.33 29.66 74.24 28.59 72.25 27.17C70.21 25.71 68.23 23.86 66.98 22.21C65.27 22.12 62.12 20.63 59.33 18.85C56.67 17.15 54.3 15.13 53.72 13.72C51.87 13.4 49.3 12.51 47.01 11.51C44.34 10.32 42 8.96 41.55 8.14Z" fill="black"/>
<path d="M41.48 19.61C41.43 19.25 41.69 18.92 42.05 18.87C42.41 18.82 42.74 19.08 42.79 19.44C42.89 20.19 44.74 21.46 47.08 22.51C49.23 23.48 51.74 24.19 53.71 24.08C54.01 24.06 54.28 24.26 54.37 24.53C54.69 25.5 56.52 27.02 58.58 28.34C60.9 29.84 63.43 31.06 64.33 30.96C64.69 30.92 65.02 31.19 65.06 31.55C65.14 32.28 66.52 34.04 68.02 35.62C69.47 37.16 70.93 38.49 71.28 38.45C71.64 38.41 71.97 38.67 72.01 39.04C72.05 39.4 71.79 39.73 71.42 39.77C70.65 39.85 68.75 38.32 67.05 36.53C65.66 35.05 64.34 33.36 63.9 32.25C62.51 32.04 60.06 30.87 57.87 29.45C55.86 28.15 54.02 26.63 53.33 25.4C51.23 25.4 48.7 24.67 46.55 23.7C43.82 22.5 41.64 20.81 41.48 19.61Z" fill="black"/>
<path d="M29.11 116.45C29.21 116.8 29 117.17 28.64 117.26C28.29 117.36 27.92 117.15 27.83 116.79C24.95 106.21 31.08 91.36 36.92 77.21C38.53 73.32 40.11 69.48 41.51 65.73C41.64 65.39 42.02 65.21 42.36 65.34C42.7 65.47 42.88 65.85 42.75 66.19C41.39 69.85 39.78 73.76 38.14 77.72C32.39 91.66 26.35 106.29 29.11 116.45Z" fill="black"/>
<path d="M18.3101 105.88C18.2901 106.25 17.9701 106.52 17.6101 106.5C17.2401 106.48 16.9701 106.16 16.9901 105.8C17.8001 92.72 24.1101 85.68 32.1901 76.68C35.1501 73.38 38.3501 69.81 41.6101 65.56C41.8301 65.27 42.2501 65.21 42.5401 65.44C42.8301 65.66 42.8901 66.08 42.6601 66.37C39.3901 70.64 36.1601 74.24 33.1701 77.57C25.2701 86.37 19.0901 93.25 18.3101 105.88Z" fill="black"/>
<path d="M10.25 95.71C10.16 96.07 9.80001 96.28 9.45001 96.19C9.09001 96.1 8.88001 95.74 8.97001 95.39C11.98 83.47 18.44 79.62 29.75 72.88C33.26 70.79 37.25 68.41 41.77 65.4C42.08 65.2 42.49 65.28 42.69 65.59C42.89 65.9 42.81 66.31 42.5 66.51C37.98 69.52 33.96 71.91 30.43 74.02C19.41 80.58 13.13 84.33 10.25 95.71Z" fill="black"/>
<path d="M67.2801 105.8C67.3001 106.17 67.0201 106.48 66.6601 106.5C66.2901 106.52 65.9801 106.24 65.9601 105.88C65.1801 93.26 59.0001 86.37 51.1001 77.56C48.1101 74.23 44.8901 70.63 41.6101 66.36C41.3901 66.07 41.4401 65.65 41.7301 65.43C42.0201 65.21 42.4401 65.26 42.6601 65.55C45.9201 69.8 49.1201 73.37 52.0801 76.67C60.1501 85.68 66.4601 92.72 67.2801 105.8Z" fill="black"/>
<path d="M75.3 95.39C75.39 95.75 75.17 96.11 74.82 96.19C74.47 96.28 74.11 96.06 74.02 95.71C71.15 84.33 64.86 80.58 53.85 74.01C50.32 71.9 46.3 69.51 41.78 66.5C41.48 66.3 41.39 65.89 41.59 65.58C41.79 65.28 42.2 65.19 42.51 65.39C47.03 68.39 51.02 70.77 54.53 72.87C65.83 79.63 72.29 83.48 75.3 95.39Z" fill="black"/>
<path d="M42.6501 78.3C42.4201 78.59 42.0101 78.64 41.7201 78.41C41.4301 78.18 41.3801 77.77 41.6101 77.48L41.6501 77.43C41.6701 77.41 41.6801 77.39 41.7001 77.37C41.9201 77.08 42.3401 77.02 42.6301 77.25C42.9201 77.47 42.9801 77.89 42.7501 78.18L42.6501 78.3Z" fill="black"/>
<path d="M42.6499 77.48C42.8799 77.77 42.8299 78.18 42.5399 78.41C42.2499 78.64 41.8399 78.59 41.6099 78.3C41.1899 77.78 40.6699 77.31 40.0199 77.06C39.4999 76.86 38.8699 76.79 38.1499 76.95C37.8199 77.02 37.4999 76.83 37.3899 76.53C37.1599 75.9 36.9299 75.43 36.6299 75.1C36.3499 74.79 35.9799 74.56 35.4499 74.4C35.1599 74.31 34.9699 74.03 34.9799 73.74C34.9799 73.69 34.9799 73.65 34.9899 73.6C35.0099 73.48 35.0199 73.37 35.0199 73.26C35.0199 73.01 34.9699 72.79 34.8799 72.61C34.7699 72.38 34.5799 72.2 34.3199 72.1L34.7699 70.86C35.3699 71.08 35.8099 71.48 36.0799 72.01C36.2699 72.38 36.3599 72.81 36.3499 73.29V73.33C36.8699 73.55 37.2799 73.84 37.6199 74.23C37.9499 74.6 38.2099 75.04 38.4399 75.58C39.2099 75.5 39.8899 75.61 40.4999 75.84C41.3999 76.18 42.1099 76.8 42.6499 77.48Z" fill="black"/>
<path d="M42.65 78.3C42.42 78.59 42.01 78.63 41.72 78.41C41.43 78.18 41.39 77.77 41.61 77.48C42.15 76.8 42.86 76.18 43.77 75.83C44.38 75.6 45.07 75.49 45.83 75.57C46.06 75.03 46.32 74.58 46.65 74.22C46.99 73.84 47.4 73.55 47.92 73.32V73.28C47.91 72.81 48.01 72.38 48.19 72C48.45 71.47 48.89 71.07 49.5 70.85L49.95 72.09C49.69 72.18 49.5 72.36 49.39 72.6C49.3 72.78 49.25 73.01 49.25 73.25C49.25 73.36 49.26 73.47 49.28 73.59C49.29 73.64 49.29 73.68 49.29 73.73C49.3 74.02 49.12 74.3 48.82 74.39C48.29 74.56 47.92 74.78 47.64 75.09C47.34 75.43 47.11 75.89 46.88 76.52C46.77 76.82 46.45 77.01 46.12 76.94C45.39 76.78 44.77 76.85 44.24 77.05C43.6 77.31 43.07 77.78 42.65 78.3Z" fill="black"/>
<path d="M42.75 87.37C42.89 87.71 42.73 88.09 42.39 88.23C42.05 88.37 41.67 88.21 41.53 87.87C41.14 86.92 40.14 85.72 38.73 84.99C37.67 84.45 36.39 84.17 34.95 84.48C34.59 84.56 34.24 84.33 34.16 83.97L34.15 83.94C33.95 82.82 33.44 81.89 32.72 81.3C32.06 80.76 31.2 80.51 30.23 80.67C29.87 80.73 29.53 80.49 29.47 80.13C29.46 80.08 29.46 80.03 29.46 79.98V79.9C29.44 79.27 29.14 78.5 28.7 77.88C28.3 77.32 27.8 76.91 27.31 76.9H27.26C26.89 76.91 26.59 76.63 26.58 76.26C26.57 75.89 26.85 75.59 27.22 75.58C27.26 75.58 27.3 75.58 27.34 75.58C28.29 75.6 29.16 76.24 29.78 77.12C30.25 77.77 30.59 78.56 30.72 79.31C31.81 79.29 32.77 79.65 33.56 80.28C34.38 80.95 35 81.92 35.32 83.08C36.83 82.89 38.19 83.23 39.34 83.82C41.04 84.7 42.26 86.19 42.75 87.37Z" fill="black"/>
<path d="M42.75 97.29C42.89 97.63 42.73 98.01 42.39 98.15C42.05 98.29 41.67 98.13 41.53 97.79C41.15 96.86 39.15 95.25 36.83 94.12C35.05 93.26 33.13 92.71 31.66 93.03C31.3 93.11 30.95 92.88 30.87 92.52L30.86 92.49C30.69 91.51 29.61 90.48 28.3 89.69C26.83 88.8 25.1 88.26 23.99 88.45C23.63 88.51 23.29 88.27 23.23 87.91C23.22 87.86 23.22 87.82 23.22 87.77C23.22 87.74 23.21 87.7 23.2 87.66C23.04 87 22.22 85.97 21.11 85.06C19.99 84.15 18.62 83.41 17.38 83.39C17.14 83.39 16.9 83.41 16.67 83.47C16.31 83.56 15.96 83.34 15.87 82.99C15.78 82.63 16 82.28 16.36 82.19C16.7 82.11 17.05 82.07 17.41 82.08C18.99 82.11 20.65 82.98 21.96 84.05C23.16 85.03 24.1 86.22 24.42 87.12C25.78 87.12 27.52 87.7 28.99 88.58C30.35 89.4 31.52 90.49 31.99 91.66C33.66 91.51 35.62 92.08 37.4 92.95C39.98 94.19 42.26 96.11 42.75 97.29Z" fill="black"/>
<path d="M42.79 108.7C42.84 109.06 42.58 109.39 42.22 109.44C41.86 109.49 41.53 109.23 41.48 108.87C41.38 108.13 39.04 106.69 36.23 105.46C33.63 104.32 30.67 103.45 28.69 103.55C28.39 103.57 28.12 103.37 28.03 103.1C27.7 102.11 26.15 100.72 24.41 99.54C22.49 98.24 20.42 97.25 19.54 97.34C19.18 97.38 18.85 97.12 18.81 96.75C18.8 96.63 18.82 96.52 18.86 96.42C18.9 96.31 18.9 96.14 18.86 95.92V95.9C18.68 94.97 17.86 93.66 16.81 92.45C15.74 91.22 14.45 90.13 13.33 89.68C12.91 89.51 12.54 89.44 12.24 89.5C11.88 89.57 11.53 89.33 11.47 88.97C11.4 88.61 11.64 88.26 12 88.2C12.56 88.09 13.19 88.19 13.83 88.45C15.15 88.98 16.63 90.22 17.82 91.59C19.01 92.96 19.93 94.5 20.17 95.65L20.18 95.68C20.21 95.82 20.22 95.95 20.23 96.08C21.53 96.33 23.44 97.27 25.17 98.44C26.89 99.6 28.47 101.02 29.11 102.22C31.28 102.24 34.21 103.12 36.78 104.24C39.94 105.64 42.63 107.5 42.79 108.7Z" fill="black"/>
<path d="M42.79 117.69C42.84 118.05 42.58 118.38 42.22 118.43C41.86 118.48 41.53 118.22 41.48 117.86C41.38 117.13 38.83 115.61 35.81 114.31C33.01 113.1 29.86 112.16 27.88 112.26C27.58 112.28 27.31 112.08 27.22 111.81C26.87 110.75 25 108.94 22.97 107.38C20.92 105.81 18.77 104.53 17.96 104.62C17.6 104.66 17.27 104.39 17.23 104.03C17.14 103.22 15.68 101.23 13.89 99.4C12.37 97.84 10.64 96.45 9.35996 96.07C8.99996 95.96 8.79996 95.59 8.89996 95.24C8.99996 94.89 9.36996 94.69 9.71996 94.79C11.22 95.24 13.16 96.77 14.82 98.47C16.5 100.19 17.93 102.13 18.39 103.33C19.69 103.58 21.81 104.82 23.76 106.32C25.73 107.83 27.58 109.62 28.27 110.93C30.46 110.96 33.58 111.9 36.33 113.09C39.72 114.56 42.63 116.49 42.79 117.69Z" fill="black"/>
<path d="M42.75 87.87C42.61 88.21 42.22 88.37 41.89 88.23C41.55 88.09 41.39 87.7 41.53 87.37C42.02 86.18 43.24 84.7 44.95 83.81C46.09 83.22 47.45 82.89 48.97 83.07C49.29 81.92 49.9 80.94 50.73 80.27C51.51 79.63 52.48 79.27 53.57 79.3C53.7 78.55 54.04 77.76 54.51 77.11C55.13 76.24 56 75.6 56.95 75.58C56.99 75.58 57.03 75.58 57.07 75.58C57.44 75.59 57.72 75.9 57.71 76.26C57.7 76.63 57.39 76.91 57.03 76.9H56.98C56.5 76.91 56 77.32 55.59 77.88C55.15 78.5 54.86 79.26 54.83 79.9V79.98C54.83 80.03 54.83 80.08 54.82 80.13C54.76 80.49 54.42 80.73 54.06 80.67C53.09 80.51 52.23 80.76 51.57 81.3C50.84 81.89 50.33 82.82 50.14 83.94L50.13 83.97C50.05 84.33 49.7 84.56 49.34 84.48C47.91 84.17 46.62 84.44 45.56 84.99C44.13 85.72 43.13 86.92 42.75 87.87Z" fill="black"/>
<path d="M42.75 97.8C42.61 98.14 42.22 98.3 41.89 98.16C41.55 98.02 41.39 97.63 41.53 97.3C42.02 96.12 44.3 94.2 46.88 92.94C48.66 92.07 50.62 91.5 52.29 91.65C52.76 90.49 53.93 89.39 55.29 88.57C56.76 87.69 58.5 87.1 59.86 87.11C60.18 86.22 61.12 85.03 62.32 84.04C63.63 82.97 65.29 82.1 66.87 82.07C67.23 82.06 67.58 82.1 67.92 82.18C68.27 82.27 68.49 82.63 68.4 82.98C68.31 83.33 67.95 83.55 67.6 83.46C67.37 83.4 67.13 83.38 66.89 83.38C65.65 83.4 64.28 84.14 63.16 85.05C62.05 85.96 61.23 87 61.07 87.65C61.06 87.69 61.05 87.73 61.05 87.76C61.05 87.81 61.05 87.85 61.04 87.9C60.98 88.26 60.64 88.5 60.28 88.44C59.17 88.25 57.44 88.8 55.97 89.68C54.66 90.47 53.59 91.5 53.41 92.48L53.4 92.51C53.32 92.87 52.97 93.1 52.61 93.02C51.15 92.7 49.22 93.25 47.44 94.11C45.13 95.26 43.13 96.87 42.75 97.8Z" fill="black"/>
<path d="M41.7001 65.45L41.9301 65.72L42.6201 66.4C42.5901 66.43 42.5801 66.44 42.5601 66.46L42.5501 66.47L41.9001 65.7L41.9201 65.72L41.7001 65.45ZM41.9101 65.69L41.7101 65.45L41.6901 65.47L41.9101 65.69ZM41.6801 65.47C41.6801 65.48 41.6801 65.48 41.6801 65.47Z" fill="black"/>
<path d="M78.56 27.43C78.7 27.09 79.09 26.93 79.43 27.07C79.77 27.21 79.93 27.6 79.79 27.94C75.57 38 61.38 50.2 49.57 60.37C47.08 62.52 44.69 64.57 42.57 66.45C42.3 66.69 41.88 66.67 41.63 66.4C41.39 66.13 41.41 65.71 41.68 65.46C43.87 63.51 46.23 61.48 48.69 59.36C60.41 49.29 74.47 37.19 78.56 27.43Z" fill="black"/>
<path d="M41.47 3.82C41.47 3.45 41.77 3.16 42.13 3.16C42.5 3.16 42.79 3.46 42.79 3.82V121.14C42.79 121.51 42.49 121.8 42.13 121.8C41.76 121.8 41.47 121.5 41.47 121.14V3.82Z" fill="black"/>
<path d="M56.43 116.79C56.33 117.14 55.97 117.35 55.62 117.26C55.27 117.16 55.06 116.8 55.15 116.45C57.91 106.3 51.87 91.66 46.11 77.72C44.47 73.76 42.86 69.85 41.5 66.19C41.37 65.85 41.55 65.46 41.89 65.34C42.23 65.21 42.62 65.39 42.74 65.73C44.13 69.48 45.72 73.32 47.33 77.22C53.18 91.36 59.31 106.21 56.43 116.79Z" fill="black"/>
<path d="M42.79 108.87C42.74 109.23 42.41 109.49 42.05 109.44C41.69 109.39 41.43 109.06 41.48 108.7C41.64 107.5 44.33 105.64 47.52 104.25C50.09 103.13 53.03 102.25 55.19 102.23C55.83 101.03 57.41 99.61 59.13 98.45C60.86 97.28 62.78 96.34 64.07 96.09C64.08 95.96 64.09 95.83 64.12 95.69C64.34 94.53 65.27 92.98 66.47 91.6C67.66 90.23 69.14 88.99 70.46 88.46C71.1 88.2 71.72 88.1 72.29 88.21C72.65 88.28 72.89 88.62 72.82 88.98C72.75 89.34 72.41 89.58 72.05 89.51C71.75 89.45 71.37 89.52 70.96 89.69C69.84 90.14 68.54 91.23 67.48 92.46C66.42 93.68 65.6 95 65.43 95.93C65.39 96.14 65.39 96.32 65.43 96.43C65.47 96.53 65.49 96.64 65.48 96.76C65.44 97.12 65.12 97.39 64.75 97.35C63.87 97.25 61.8 98.25 59.88 99.55C58.14 100.73 56.58 102.12 56.26 103.11C56.17 103.39 55.9 103.58 55.6 103.56C53.62 103.46 50.66 104.33 48.06 105.47C45.23 106.69 42.89 108.14 42.79 108.87Z" fill="black"/>
<path d="M42.79 117.86C42.74 118.22 42.41 118.48 42.05 118.43C41.69 118.38 41.43 118.05 41.48 117.69C41.64 116.49 44.54 114.56 47.93 113.09C50.68 111.9 53.8 110.96 55.99 110.93C56.68 109.63 58.53 107.83 60.5 106.32C62.45 104.82 64.57 103.58 65.87 103.33C66.33 102.12 67.76 100.18 69.43 98.47C71.09 96.77 73.02 95.24 74.53 94.79C74.88 94.69 75.25 94.89 75.35 95.24C75.45 95.59 75.25 95.96 74.9 96.06C73.63 96.44 71.9 97.83 70.38 99.39C68.59 101.22 67.13 103.21 67.04 104.02C67 104.38 66.68 104.65 66.31 104.61C65.49 104.52 63.35 105.8 61.3 107.37C59.27 108.93 57.4 110.75 57.05 111.8C56.96 112.08 56.69 112.27 56.39 112.25C54.4 112.15 51.26 113.09 48.46 114.3C45.44 115.61 42.89 117.13 42.79 117.86Z" fill="black"/>
</svg>
