<svg xmlns="http://www.w3.org/2000/svg" viewBox="0 0 64 64"><defs><style>.cls-1{fill:#4f4f4f;stroke:#4f4f4f;}.cls-1,.cls-3,.cls-4,.cls-6,.cls-8,.cls-9{stroke-linecap:round;stroke-linejoin:round;stroke-width:2px;}.cls-2{fill:#eaca80;}.cls-3{fill:#f97575;stroke:#f97575;}.cls-4{fill:#fff;}.cls-4,.cls-9{stroke:#aaa;}.cls-5{fill:#ffe082;}.cls-6{fill:none;stroke:#f57e17;}.cls-7{fill:#54596e;}.cls-8{fill:#faf500;stroke:#faf500;}.cls-9{fill:#aaa;}</style></defs><title>Thor-marvel</title><g id="Thor-marvel"><path class="cls-1" d="M63,64H1V60.94A10.77,10.77,0,0,1,9.79,50.35L33,46l21.34,4.27A10.77,10.77,0,0,1,63,60.83Z"/><polygon class="cls-2" points="46 59 18 59 17 39 47 39 46 59"/><polygon class="cls-3" points="23 55 15 45 8 52 14 52 17 59 26 59 23 55"/><path class="cls-4" d="M20,8.72H13.72L8.13,3.93A1.29,1.29,0,0,0,6.05,5.26L9.77,18.62A1.61,1.61,0,0,0,11.37,20h0a1.61,1.61,0,0,1,1.5,1l1.7,4.26a1.61,1.61,0,0,0,1.5,1h1.42Z"/><path class="cls-4" d="M44,8.72h6.28l5.59-4.79a1.29,1.29,0,0,1,2.08,1.32L54.23,18.62A1.61,1.61,0,0,1,52.63,20h0a1.61,1.61,0,0,0-1.5,1l-1.7,4.26a1.61,1.61,0,0,1-1.5,1H46.51Z"/><polygon class="cls-3" points="41 55 49 45 56 52 50 52 47 59 38 59 41 55"/><circle class="cls-2" cx="49" cy="30" r="3"/><circle class="cls-2" cx="15" cy="30" r="3"/><path class="cls-5" d="M48.94,37.88,47.94,21H16.06l-1,16.88a5.69,5.69,0,0,0,1.89,5l5.25,6.57a3.93,3.93,0,0,0,3.91,1.61l5.66-.46,6.14.49a3.92,3.92,0,0,0,3.88-1.61l5.26-6.59A5.69,5.69,0,0,0,48.94,37.88Z"/><line class="cls-6" x1="28" y1="39" x2="36" y2="39"/><circle class="cls-7" cx="38.5" cy="29.5" r="1.5"/><circle class="cls-7" cx="25.5" cy="29.5" r="1.5"/><path class="cls-8" d="M49,64a7,7,0,0,0-14,0Z"/><path class="cls-8" d="M30,64a7,7,0,0,0-14,0Z"/><path class="cls-9" d="M32,3h0A16,16,0,0,1,48,19v3a0,0,0,0,1,0,0H16a0,0,0,0,1,0,0V19A16,16,0,0,1,32,3Z"/><path class="cls-1" d="M29,3h6a0,0,0,0,1,0,0V22a2,2,0,0,1-2,2H31a2,2,0,0,1-2-2V3a0,0,0,0,1,0,0Z"/></g></svg>